<?xml version="1.0" encoding="UTF-8"?>
<svg id="Layer_1" data-name="Layer 1" xmlns="http://www.w3.org/2000/svg" viewBox="0 0 216 216">
  <defs>
    <style>
      .cls-1 {
        fill: none;
        stroke: #2e3192;
        stroke-miterlimit: 10;
        stroke-width: 8px;
      }
    </style>
  </defs>
  <path class="cls-1" d="M190.22,38.4c16.21,11.88-15.17,39.04-11.25,54.19,5.34,20.67,29.23,7.7,29.41,28.68.23,26.12-54.21,3.09-58.89,39.77-4.5,35.31-45.76,52.91-68.26,33.67-22.72-19.42-8.65-34.36-8.65-53.09-.01-47.15-64.54-19.72-64.95-36.01-.44-17.42,44.61-17.97,57.9-31.26,9.65-9.65-7.17-60.19,22.53-60.98,16.96-.45,41.85,29.58,54.32,36.07,20.31,10.58,38.43-17.94,47.84-11.04Z"/>
</svg>